<?xml version="1.0" encoding="utf-8"?>
<!-- Generator: Adobe Illustrator 25.0.1, SVG Export Plug-In . SVG Version: 6.00 Build 0)  -->
<svg version="1.1" id="Layer_1" xmlns="http://www.w3.org/2000/svg" xmlns:xlink="http://www.w3.org/1999/xlink" x="0px" y="0px"
	 viewBox="0 0 150 100" style="enable-background:new 0 0 150 100;" xml:space="preserve">
<style type="text/css">
	.st0{fill:#FFFFFF;}
	.st1{fill-rule:evenodd;clip-rule:evenodd;fill:#FFFFFF;}
	.st2{fill-rule:evenodd;clip-rule:evenodd;fill:#D12028;}
</style>
<path class="st0" d="M32.7,53.1l-2.4-2.4v-7.1h9.4V46h-7.1v3.5l1.2,1.2h5.9v2.4H32.7L32.7,53.1z M44.5,56.6V49L41,45.4v-3.5l4.7,4.7
	l2.9-2.9h3.5L46.8,49v5.3L44.5,56.6L44.5,56.6z M51.6,59v-3.5l5.9-5.9h-3.5l3.5-3.5h-3.5v7.1h-2.4v-9.4H61V46l-1.2,1.2H61v2.4
	L51.6,59L51.6,59z M62.1,53.1v-2.4h9.4v2.4H62.1z M62.1,49.6v-2.4h9.4v2.4H62.1z M62.1,46v-2.4h9.4V46H62.1z M83.3,57.8l-8.2-8.2
	l3.5-3.5h-3.5v7.1h-2.4v-9.4h9.4V46l-3.5,3.5l4.7,4.7L83.3,57.8L83.3,57.8z M83.3,53.1v-9.4h2.4v7.1h3.5l1.2-1.2v-5.9h2.4v7.1
	l-2.4,2.4L83.3,53.1L83.3,53.1z M103.3,54.9l-7.1-7.1v5.3h-2.4V41.9l7.1,7.1v-5.3h2.4V54.9z M113.9,54.9l-7.1-7.1v5.3h-2.4V41.9
	l7.1,7.1v-5.3h2.4V54.9z M115,53.1v-2.4h9.4v2.4H115z M115,49.6v-2.4h9.4v2.4H115z M115,46v-2.4h9.4V46H115z M136.2,57.8l-8.2-8.2
	l3.5-3.5H128v7.1h-2.4v-9.4h9.4V46l-3.5,3.5l4.7,4.7L136.2,57.8L136.2,57.8z M134.4,53.1l2.4-2.4h5.3l1.2-1.2h-7.1V46l2.4-2.4h8.8
	L145,46h-5.3l-1.2,1.2h7.1v3.5l-2.4,2.4H134.4z"/>
<g>
	<path class="st1" d="M7.2,45.1h4.4c1,0,1.9,0.8,1.9,1.9v2.6c0,0.5-0.4,1-1,1H8.1c-1,0-1.9-0.8-1.9-1.9V46
		C6.3,45.5,6.7,45.1,7.2,45.1z"/>
	<path class="st2" d="M8.4,59.1l0-5.5v-0.4l1.2,0.5l0.2,9.3l1.5,0.5l-0.2-7.8l0.9-0.3l0.4,6.7c-0.2,0-0.3,0-0.5,0
		c0.2,0.4,0.3,0.8,0.5,1.1c0.3,0,0.6,0.1,0.8,0.1c0,0,0-0.1,0-0.1c0.5,0,0.8-0.1,1-0.2l0.3,0.1c0.2-0.3,0.4-2.3,0.4-3.5L14,60.3
		c0,0.5,0.1,1.4,0.2,2.1c-0.1,0-0.5-0.1-0.6-0.1l0-7l0.6,0.2c0,0-0.2,1.6-0.2,1.9l1.2,0.6c0-0.2,0-0.4,0-0.6l0-2.2l1-0.2l0.4,0.3
		l0.1,0.1l-0.1,0.1L16,55.8c-0.2,2.6,0.2,4.6-0.5,7.4c0.4-0.1,1.3-0.2,1.7-0.2c0.2-0.2,0.1-3.6,0.2-5.3c0.3,0,1.2-1.4,1.3-2.3
		l-0.6,0.1c0.2-1.2,0.3-2.6,0.3-2.8c0.3,0.6,0.4,1.3,0.4,1.9l0.6-0.5c-0.2,1.2-0.2,1.9-1.2,3.7c2.1-0.5,4.1-3.8,4.8-5.8l-0.7,0.1
		l0.8-3.3c0.7-2.7,0.3-3.6-1-6.2c-1.2-2.4-1.9-4.2-4.6-4.8c-2.6-0.5-5-1.1-7.3,0.2l-2,1.1l0,0.9l0,0.7c0,0.2,0.4-0.4,0.5-0.2
		c0.2,1.2,0.6,2.5,0.7,2.7c-0.5-0.5-0.9-1.1-1.1-1.7c-0.2,0.1-0.3,0.5-0.4,0.7l-1-2.1c-1.6,1-2.4,2.3-2.7,3.7
		c-0.5,2.3,0.3,5.1,0.8,7.6L5.7,52v0.4v0.4L6.1,53l0.7,0.3V53l0,4.8C6.1,58,6.3,59,7,59c0.6,0,0.9-0.7,0.5-1.1
		c-0.1-0.1-0.2-0.1-0.3-0.2l0-5V53l-0.4-0.2l-0.7-0.3v-0.4L8,53l0,6.1c-0.1,0-0.2,0.1-0.2,0.1c-0.1,0.1-0.2,0.3-0.2,0.5
		c0,0.2,0.1,0.4,0.2,0.5l0,0c0.1,0.1,0.3,0.2,0.5,0.2c0.2,0,0.4-0.1,0.5-0.2c0.1-0.1,0.2-0.3,0.2-0.5c0-0.2-0.1-0.4-0.2-0.5l0,0l0,0
		C8.6,59.2,8.5,59.1,8.4,59.1L8.4,59.1z M14.2,50.3l1.5,0.7l1.4-1.9l1.8,1.8l1.1-1.5l-1.9-1.4l2-1.9l-1.6-0.7l-1.2,1.7L15,45.7
		l-0.3,1l1.7,1.5L14.2,50.3L14.2,50.3z M6.9,58.6c0.3,0.3,0.6-0.1,0.4-0.4C7,57.9,6.6,58.3,6.9,58.6z M14.1,51.1
		c0.3,0.3,0.3,0.7,0.6,1.1c0.3,0.5,0.4,0.3,0,1.1c-0.1,0.2-0.1,0.3-0.3,0.3c-0.2,0.1-0.6-0.2-0.7-0.2s-0.6,0.3-0.6,0.3
		c-0.2,0-0.4-0.5-0.4-0.6c0-0.1-0.1-0.3-0.2-0.4c0-0.2,0-0.3,0.1-0.4c0.5-0.6,0.4-1.1,0.9-1.4C13.8,50.6,13.9,50.9,14.1,51.1
		L14.1,51.1z M11.1,49.6c0.3-0.3,0.4-0.6,0.5-0.9c0-0.1,0.1-0.2,0.1-0.4l1.5,0.9C13.5,49.4,12.4,49.6,11.1,49.6z M9.5,47.2
		c-0.1,0-0.2,0.1-0.3,0.2c-0.3,0.3-0.4,0.6-0.4,0.9c0,0.3,0.1,0.5,0.2,0.7c0.3,0.3,0.8,0.4,1.1,0c0.1-0.2,0.2-0.3,0.3-0.5
		c0.1-0.2,0-0.5,0-0.7c0,0,0-0.1,0-0.1L9.5,47.2C9.6,47.2,9.6,47.2,9.5,47.2z M8.5,46.6C8,47,7.7,47.8,7.7,48.3
		c0,0.4,0.1,0.8,0.3,1.1c-0.3-0.1-0.5-0.2-0.7-0.3l-0.6-3.5L8.5,46.6z M8.4,59.5L8.4,59.5L8.4,59.5L8.4,59.5L8.4,59.5L8.4,59.5
		L8.4,59.5L8.4,59.5L8.4,59.5L8.4,59.5L8.4,59.5L8.4,59.5L8.4,59.5L8.4,59.5L8.4,59.5L8.4,59.5L8.4,59.5L8.4,59.5L8.4,59.5L8.4,59.5
		C8.4,59.5,8.4,59.5,8.4,59.5L8.4,59.5L8.4,59.5L8.4,59.5L8.4,59.5L8.4,59.5l-0.1,0l0,0h0l0,0h0h0h0l0,0h0h0l0,0l0,0h0h0l0,0l0,0h0
		h0l0,0l0,0h0h0l0,0l0,0h0h0l0,0l0,0h0h0l0,0l0,0h0l0,0h0l0,0l0,0l0,0l0,0l0,0l0,0l0,0l0,0l0,0c0,0-0.1,0-0.1,0.1
		c0,0-0.1,0.1-0.1,0.1l0,0l0,0l0,0l0,0l0,0l0,0l0,0v0l0,0l0,0v0l0,0l0,0l0,0v0l0,0l0,0v0l0,0l0,0v0l0,0l0,0v0v0l0,0l0,0v0v0l0,0l0,0
		v0v0l0,0l0,0v0v0l0,0l0,0v0v0l0,0l0,0v0v0v0v0v0v0l0,0v0v0v0v0v0v0v0l0,0v0l0,0v0v0v0v0v0l0,0l0,0l0,0l0,0l0,0l0,0l0,0l0,0l0,0l0,0
		l0,0l0,0l0,0l0,0l0,0h0l0,0l0,0l0,0l0,0l0,0l0,0l0,0l0,0l0,0l0,0l0,0l0,0l0,0l0,0l0,0h0h0l0,0l0,0h0l0,0l0,0h0l0,0h0h0l0,0l0,0h0h0
		h0l0,0h0h0h0l0,0l0,0h0h0l0,0l0,0h0h0l0,0l0,0h0h0l0,0l0,0h0h0l0,0l0,0h0h0l0,0l0,0h0h0h0l0,0h0l0,0l0,0l0,0l0,0l0,0l0,0l0,0l0,0
		l0,0l0,0c0,0,0.1,0,0.1-0.1c0,0,0.1-0.1,0.1-0.1l0,0l0,0l0,0v0l0,0v0v0v0v0v0v0v0l0,0l0,0v0v0v0v0v0l0,0l0,0v0v0l0,0l0,0v0v0v0l0,0
		v0v0v0v0v0v0l0,0L8.4,59.5L8.4,59.5L8.4,59.5L8.4,59.5L8.4,59.5L8.4,59.5L8.4,59.5L8.4,59.5L8.4,59.5L8.4,59.5L8.4,59.5L8.4,59.5
		L8.4,59.5L8.4,59.5L8.4,59.5L8.4,59.5L8.4,59.5L8.4,59.5L8.4,59.5L8.4,59.5L8.4,59.5L8.4,59.5L8.4,59.5L8.4,59.5L8.4,59.5L8.4,59.5
		L8.4,59.5L8.4,59.5L8.4,59.5L8.4,59.5L8.4,59.5L8.4,59.5L8.4,59.5L8.4,59.5L8.4,59.5L8.4,59.5L8.4,59.5L8.4,59.5L8.4,59.5L8.4,59.5
		L8.4,59.5L8.4,59.5L8.4,59.5z"/>
</g>
</svg>
