<?xml version="1.0" encoding="UTF-8"?>
<svg width="116px" height="36px" viewBox="0 0 116 36" version="1.1" xmlns="http://www.w3.org/2000/svg" xmlns:xlink="http://www.w3.org/1999/xlink">
    <!-- Generator: Sketch 52.6 (67491) - http://www.bohemiancoding.com/sketch -->
    <title>Group 13</title>
    <desc>Created with Sketch.</desc>
    <g id="Page-1" stroke="none" stroke-width="1" fill="none" fill-rule="evenodd">
        <g id="Colored" transform="translate(-184.000000, -441.000000)">
            <g id="Group-13" transform="translate(184.000000, 442.000000)">
                <path d="M67.0243868,28 L64.5219962,28 L59.9571958,19.1248285 L55.1449062,19.1248285 L55.1449062,28 L53,28 L53,8 L60.6859139,8 C61.8408692,8 62.8697723,8.22404897 63.772654,8.67215364 C64.6755357,9.1202583 65.376748,9.76725686 65.876312,10.6131687 C66.375876,11.4590806 66.6256542,12.4398664 66.6256542,13.5555556 C66.6256542,14.9913195 66.2269256,16.1778645 65.4294565,17.1152263 C64.6319874,18.0525881 63.5778774,18.6538624 62.2670948,18.9190672 L67.0243868,28 Z M64.4944974,13.5829904 C64.4944974,12.3941413 64.1324335,11.4842281 63.4082949,10.8532236 C62.6841563,10.2222191 61.7125418,9.90672154 60.4934224,9.90672154 L55.1449062,9.90672154 L55.1449062,17.2455418 L60.4934224,17.2455418 C61.2633925,17.2455418 61.9531471,17.1106552 62.5627069,16.8408779 C63.1722666,16.5711006 63.6466161,16.1618683 63.9857697,15.6131687 C64.3249232,15.0644691 64.4944974,14.3877498 64.4944974,13.5829904 Z M82.7613376,9.90672154 L76.9590913,9.90672154 L76.9590913,28 L74.8141851,28 L74.8141851,9.90672154 L69.0119388,9.90672154 L69.0119388,8 L82.7613376,8 L82.7613376,9.90672154 Z M100.079469,28 L97.7970691,28 L96.1883894,23.473251 L87.4300223,23.473251 L85.8213427,28 L83.5526919,28 L90.9223696,8 L92.7235409,8 L100.079469,28 Z M95.5696664,21.6213992 L91.8573288,11.0589849 L88.0762441,21.6213992 L95.5696664,21.6213992 Z M115.307692,28 L102.919484,28 L102.919484,8 L105.06439,8 L105.06439,26.0932785 L115.307692,26.0932785 L115.307692,28 Z" id="RTAL" fill="#FFFFFF"></path>
                <path d="M13.4615385,13.8710562 C13.4615385,14.7764106 13.316938,15.5857303 13.0277326,16.2990398 C12.7385272,17.0123492 12.3205414,17.6319132 11.7737625,18.1577503 C11.2269836,18.6835874 10.5717625,19.0836749 9.80807963,19.3580247 C9.04439673,19.6323745 8.22875947,19.7695473 7.36114339,19.7695473 L2.11480363,19.7695473 L2.11480363,28 L0,28 L0,8 L7.36114339,8 C8.25587247,8 9.07828788,8.13488663 9.82841428,8.40466392 C10.5785407,8.67444122 11.2269836,9.07224246 11.7737625,9.59807956 C12.3205414,10.1239167 12.7385272,10.7411944 13.0277326,11.4499314 C13.316938,12.1586684 13.4615385,12.9657019 13.4615385,13.8710562 Z M11.3602913,13.8710562 C11.3602913,13.0205719 11.1840594,12.2935558 10.8315904,11.6899863 C10.4791213,11.0864167 9.98431646,10.6383188 9.3471609,10.345679 C8.71000534,10.0530392 7.98022463,9.90672154 7.15779689,9.90672154 L2.11480363,9.90672154 L2.11480363,17.8628258 L7.15779689,17.8628258 C7.9892623,17.8628258 8.72130239,17.7119357 9.35393911,17.4101509 C9.98657584,17.1083661 10.4791213,16.6556957 10.8315904,16.0521262 C11.1840594,15.4485567 11.3602913,14.7215406 11.3602913,13.8710562 Z" id="P" fill="#FFFFFF"></path>
                <g id="Group-5-Copy" transform="translate(17.000000, 0.000000)" stroke="#FFFFFF">
                    <path d="M19.2023227,30.3268518 C19.9201826,28.9295886 20.5174186,27.8723423 23.7204694,27.8723423 C26.9235203,27.8723423 27.6497861,28.2302215 28.5882997,24.6793785 C29.5268134,21.1285354 30.4903344,17.1168414 30.4903344,15.4381922 C30.4903344,13.7595431 29.3557542,11.2110041 28.972027,7.38859392 C28.5882997,3.56618374 25.7103453,2.55601019 22.6081647,2.55601019 C19.5059842,2.55601019 13.119216,1.29113924 12.0924409,1.29113924 C11.0656657,1.29113924 8.61977224,1.48594492 6.38612657,4.7146336 C4.1524809,7.94332229 3.07443007,9.86174842 1.59857218,12.6499703 C0.122714288,15.4381922 0.390230605,17.1601315 2.19854004,19.8254178 C4.00684947,22.4907041 4.15311134,23.5466896 4.15311134,26.5427462 C4.15311134,29.5388029 8.34742256,27.728392 12.9506786,32.0370228 C17.5539346,36.3456537 18.4844627,31.7241149 19.2023227,30.3268518 Z" id="Path-4"></path>
                    <path d="M11.2803375,3.46909612 C13.0037478,2.32463904 14.0080372,1.43691178e-14 15.6274251,1.42108547e-14 C17.246813,1.42108547e-14 19.4485164,1.59585146 21.8775982,2.53247379 C24.3066799,3.46909612 26.8077131,6.39853639 28.1872426,10.0920688 C29.5667721,13.7856013 30.4259318,18.6668809 30.9687399,19.7875915 C31.5115479,20.908302 31.765825,23.1228244 29.7232024,24.1857447 C27.6805798,25.248665 26.9034585,24.6800089 25.5581015,26.622812 C24.2127445,28.5656151 24.2049482,31.0434509 22.7608433,31.5284687 C21.3167384,32.0134865 18.862208,30.136249 16.7273312,29.8538123 C14.5924543,29.5713756 11.490694,30.5804984 10.3538022,30.5804984 C9.21691036,30.5804984 7.42772425,26.9044081 5.93400392,25.9848077 C4.44028358,25.0652072 1.83509915,21.501335 1.27737071,19.314552 C0.719642267,17.127769 0.501090052,13.562007 2.06457898,11.297364 C3.6280679,9.03272102 2.68598176,8.18351958 4.30999284,6.39853639 C5.93400392,4.6135532 9.55692718,4.6135532 11.2803375,3.46909612 Z" id="Path-5"></path>
                    <path d="M2.31135535,11.3541877 C-0.355191821,13.4622717 -0.60574954,15.4053795 1.00193338,18.4038619 C2.60961629,21.4023442 3.90909813,21.707783 3.90909813,24.7635212 C3.90909813,27.8192594 5.78423411,28.713222 8.43375942,29.5601119 C11.0832847,30.4070017 12.1865531,30.0732893 15.6733016,30.0732893 C19.16005,30.0732893 20.5579436,31.7437427 23.680088,29.5601119 C26.8022325,27.376481 27.2439602,27.9159268 29.7236872,24.7635212 C32.2034143,21.6111156 31.6988529,21.8632913 30.2349733,17.5933274 C28.7710938,13.3233635 29.4383085,8.8890651 26.8224066,5.88607361 C24.2065047,2.88308211 22.5776602,3.80016083 20.7250099,2.5892975 C18.8723596,1.37843417 11.1902492,0.742531283 8.43375942,3.10163433 C5.67726961,5.46073737 4.97790252,9.24610377 2.31135535,11.3541877 Z" id="Path-6"></path>
                </g>
            </g>
        </g>
    </g>
</svg>